HIERARCHY
ROOT ROOT
{
	OFFSET 0.000000 56.020000 -5.659234
	CHANNELS 6 Xposition Yposition Zposition Xrotation Yrotation Zrotation 
	JOINT C_spine0001_bind_JNT
	{
		OFFSET 0.000000 1.618999 0.000000
		CHANNELS 3 Xrotation Yrotation Zrotation
		JOINT C_spine0002_bind_JNT
		{
			OFFSET 0.000000 4.942001 0.000001
			CHANNELS 3 Xrotation Yrotation Zrotation
			JOINT C_spine0003_bind_JNT
			{
				OFFSET 0.000000 4.942001 -0.000000
				CHANNELS 3 Xrotation Yrotation Zrotation
				JOINT C_neck0001_bind_JNT
				{
					OFFSET 0.000000 17.026009 -0.000000
					CHANNELS 3 Xrotation Yrotation Zrotation
					JOINT C_neck0002_bind_JNT
					{
						OFFSET 0.000000 3.249985 0.000000
						CHANNELS 3 Xrotation Yrotation Zrotation
						JOINT C_head_bind_JNT
						{
							OFFSET 0.000000 5.278008 0.000000
							CHANNELS 3 Xrotation Yrotation Zrotation
							End Site
							{
								OFFSET 0.000000 0.000000 0.000000
							}
						}
					}
				}
				JOINT L_clavicle_bind_JNT
				{
					OFFSET 4.590000 12.067001 0.834000
					CHANNELS 3 Xrotation Yrotation Zrotation
					JOINT L_armUpper0001_bind_JNT
					{
						OFFSET 7.812635 0.512001 -3.452945
						CHANNELS 3 Xrotation Yrotation Zrotation
						JOINT L_armLower0001_bind_JNT
						{
							OFFSET 15.265892 -6.552116 -0.058157
							CHANNELS 3 Xrotation Yrotation Zrotation
							JOINT L_hand0001_bind_JNT
							{
								OFFSET 14.747667 -6.369995 5.049225
								CHANNELS 3 Xrotation Yrotation Zrotation
								End Site
								{
									OFFSET 0.000000 0.000000 0.000000
								}
							}
						}
					}
				}
				JOINT R_clavicle_bind_JNT
				{
					OFFSET -4.590000 12.067001 0.834000
					CHANNELS 3 Xrotation Yrotation Zrotation
					JOINT R_armUpper0001_bind_JNT
					{
						OFFSET -7.812635 0.512001 -3.452945
						CHANNELS 3 Xrotation Yrotation Zrotation
						JOINT R_armLower0001_bind_JNT
						{
							OFFSET -15.265890 -6.552124 -0.058160
							CHANNELS 3 Xrotation Yrotation Zrotation
							JOINT R_hand0001_bind_JNT
							{
								OFFSET -14.746784 -6.369629 5.048937
								CHANNELS 3 Xrotation Yrotation Zrotation
								End Site
								{
									OFFSET 0.000000 0.000000 0.000000
								}
							}
						}
					}
				}
			}
		}
	}
	JOINT C_pelvis0001_bind_JNT
	{
		OFFSET -0.000000 0.000000 0.000000
		CHANNELS 3 Xrotation Yrotation Zrotation
		JOINT L_legUpper0001_bind_JNT
		{
			OFFSET 6.599999 -6.027000 0.539000
			CHANNELS 3 Xrotation Yrotation Zrotation
			JOINT L_legLower0001_bind_JNT
			{
				OFFSET -0.140713 -19.187443 0.040261
				CHANNELS 3 Xrotation Yrotation Zrotation
				JOINT L_foot0001_bind_JNT
				{
					OFFSET -0.132215 -18.028637 -1.138370
					CHANNELS 3 Xrotation Yrotation Zrotation
					JOINT L_foot0002_bind_JNT
					{
						OFFSET 0.007014 -4.693133 9.886524
						CHANNELS 3 Xrotation Yrotation Zrotation
						End Site
						{
							OFFSET 0.000000 0.000000 0.000000
						}
					}
				}
			}
		}
		JOINT R_legUpper0001_bind_JNT
		{
			OFFSET -6.599999 -6.027000 0.539000
			CHANNELS 3 Xrotation Yrotation Zrotation
			JOINT R_legLower0001_bind_JNT
			{
				OFFSET 0.140710 -19.187164 0.040550
				CHANNELS 3 Xrotation Yrotation Zrotation
				JOINT R_foot0001_bind_JNT
				{
					OFFSET 0.132215 -18.028633 -1.138362
					CHANNELS 3 Xrotation Yrotation Zrotation
					JOINT R_foot0002_bind_JNT
					{
						OFFSET -0.007014 -4.693128 9.886505
						CHANNELS 3 Xrotation Yrotation Zrotation
						End Site
						{
							OFFSET 0.000000 0.000000 0.000000
						}
					}
				}
			}
		}
	}
}
MOTION
Frames: 11
Frame Time: 0.039833
0.000000 48.479164 0.000000 0.009591 -4.853927 -0.020365 4.187584 4.907986 -2.021797 0.089910 -0.089791 1.433789 1.965263 -0.055527 1.242059 -2.850489 -0.348370 0.671300 1.998084 1.566424 -0.319995 8.782698 -0.167348 -0.567322 -2.923800 12.801570 -2.424823 6.349566 24.190858 -64.744362 14.205686 7.748198 1.944459 -16.677940 -34.541477 -33.151543 -2.704333 -11.955592 2.835994 4.152755 3.349912 61.570007 13.905434 -8.151155 -2.323151 -10.195526 29.283882 31.850805 0.432709 4.721172 -1.651992 5.752715 -1.125538 -6.353945 1.989545 2.243626 0.312512 -5.156546 -4.092155 4.198532 -1.779364 -0.174313 0.445961 5.356367 0.195303 9.441926 -1.640997 -4.210575 -1.775084 -2.363426 -8.768405 -3.287771 -1.317598 -0.044277 -0.488701
0.201498 48.446278 0.153833 0.003802 -4.320239 -0.012116 4.295334 4.157055 -2.019160 0.064159 -0.070065 1.547347 2.078991 0.048973 0.915887 -3.712390 -0.190663 0.508319 2.235478 1.252380 0.162511 9.128019 0.209001 -0.620189 -2.955028 12.433542 -2.488958 6.307307 24.667170 -63.993996 14.697168 8.023901 1.642385 -18.760853 -33.957700 -34.126751 -3.199820 -11.085191 3.051231 4.730259 2.404151 61.414540 13.963146 -7.941679 -2.659641 -11.697679 30.127224 32.734782 0.643805 3.722148 -1.373437 5.637006 -0.355123 -7.166556 2.184158 3.552357 0.134986 -5.354931 -4.897758 4.683485 -1.895040 -0.391928 0.349677 5.462515 -0.006581 8.869387 -1.804483 -3.779523 -1.822656 -2.211788 -8.506612 -3.306633 -1.763086 0.015179 0.037227
0.239096 48.438475 0.172165 -0.002620 -3.758227 -0.004096 4.408025 3.672323 -2.054441 -0.045126 -0.020297 1.510250 2.235940 0.123097 0.754184 -3.983322 -0.199359 0.656033 2.237219 1.237966 0.303258 9.218409 0.137385 -0.532991 -3.118856 12.277556 -2.782299 6.155863 24.652576 -63.600449 14.663736 8.357746 1.722240 -18.907691 -33.703452 -34.177907 -3.455981 -11.101578 3.371890 5.006371 2.087790 61.207956 13.990108 -7.944398 -2.634591 -11.973621 30.676003 32.873929 0.766705 3.284960 -1.334723 5.573201 -0.099395 -7.287402 2.276054 3.679321 0.112130 -5.402171 -4.886888 4.906008 -1.953293 -0.596501 0.232970 5.175148 -0.018082 8.739860 -1.476533 -3.635916 -1.792545 -2.272165 -8.429564 -3.286511 -1.887278 0.005350 0.086292
0.240087 48.433015 0.153989 0.004097 -3.522019 -0.006636 4.406574 3.591640 -2.023580 -0.021448 0.072214 1.440659 2.243832 0.160348 0.801798 -4.081262 -0.256919 0.752870 2.282251 1.331749 0.290056 9.237816 -0.128897 -0.458317 -3.098055 12.228723 -3.073451 6.022636 24.501167 -63.450935 14.536201 8.632052 1.845406 -18.720473 -33.542349 -34.278763 -3.558226 -11.209944 3.473143 5.096920 1.843533 61.124107 14.049668 -7.964731 -2.629281 -11.930987 30.987938 32.914351 0.762428 3.277667 -1.257493 5.543897 -0.068401 -7.223829 2.329768 3.534751 0.139173 -5.436752 -4.698736 4.912899 -1.939702 -0.664994 0.202678 4.994775 0.023317 8.511579 -1.303666 -3.750886 -1.670328 -2.283584 -8.445774 -3.294957 -1.831288 0.132420 0.077946
0.257428 48.446682 0.152388 0.009424 -3.429651 -0.007814 4.325261 3.714441 -1.939850 0.025239 0.094155 1.443122 2.194969 0.168645 0.825828 -4.076939 -0.306936 0.801439 2.365536 1.445763 0.292311 9.211219 -0.243238 -0.503742 -3.041857 12.188777 -3.230090 5.993499 24.380239 -63.425649 14.435561 8.817932 1.900467 -18.509604 -33.347692 -34.409445 -3.489589 -11.256640 3.431644 5.136508 1.663403 61.182501 14.126175 -7.920152 -2.678166 -11.936682 31.193303 32.843025 0.719491 3.371931 -1.143131 5.554210 -0.037080 -7.135295 2.378100 3.373451 0.095047 -5.464797 -4.618527 4.901484 -1.910738 -0.609146 0.152592 4.904607 0.040181 8.200376 -1.188835 -3.893898 -1.507706 -2.308351 -8.615583 -3.291895 -1.750002 0.206436 0.089657
0.299528 48.478734 0.186056 0.002444 -3.289665 0.000150 4.269907 3.828378 -1.861795 -0.030657 0.002754 1.506857 2.192406 0.148398 0.716258 -3.970647 -0.330945 0.901711 2.388950 1.529325 0.331313 9.133019 -0.120957 -0.655413 -3.097634 12.088578 -3.244022 6.055893 24.367659 -63.432892 14.353405 8.912772 1.874474 -18.178481 -33.127212 -34.373291 -3.302714 -11.294303 3.413055 5.200901 1.605474 61.296141 14.197442 -7.794845 -2.744456 -12.059937 31.327012 32.639037 0.726089 3.380927 -1.082524 5.605418 0.038637 -7.062281 2.429462 3.203120 -0.040109 -5.488197 -4.659546 4.998867 -1.923310 -0.523381 0.028531 4.751475 0.042951 8.000326 -0.890049 -3.954561 -1.373803 -2.493894 -8.928867 -3.251745 -1.721657 0.102141 0.096581
0.358121 48.467946 0.250255 0.001350 -3.320049 0.000126 4.337365 3.975001 -1.826823 -0.075633 -0.028093 1.441645 2.128387 0.076850 0.789717 -3.918233 -0.328045 1.018967 2.330141 1.521166 0.202183 9.070126 -0.192190 -0.728882 -3.035465 11.914751 -3.239460 6.064707 24.527189 -63.434339 14.309272 8.891978 1.744312 -17.982595 -33.026841 -34.473970 -3.240126 -11.215504 3.409224 5.246742 1.410053 61.325122 14.290176 -7.605707 -2.941207 -12.287861 31.210155 32.783308 0.761814 3.515378 -1.086403 5.675883 -0.054064 -7.117718 2.474105 3.138920 -0.105622 -5.604837 -4.659373 5.089697 -1.972796 -0.526811 0.033147 4.574747 0.134321 7.944190 -0.528173 -4.179903 -1.307648 -2.860428 -9.137403 -3.257446 -1.680027 0.118079 0.169122
0.437850 48.437307 0.318223 0.004053 -3.159764 -0.001088 4.411626 3.967928 -1.769642 -0.116452 -0.200390 1.421244 2.082895 -0.014112 0.758036 -3.852843 -0.335664 0.960770 2.291104 1.651677 0.315705 8.923037 -0.176752 -0.681697 -3.001524 11.980147 -3.219589 6.049745 24.589421 -63.286546 14.316186 8.888975 1.616798 -18.264296 -32.980947 -34.706131 -3.022548 -11.130452 3.513137 5.232377 1.469169 61.300530 14.257537 -7.647934 -3.008881 -12.446532 31.080102 32.890806 0.734958 3.515481 -0.974774 5.832520 -0.321319 -7.271341 2.446167 3.365686 -0.289438 -5.740999 -4.775401 5.262459 -1.941914 -0.474380 0.041519 4.553883 0.002995 7.648093 -0.293264 -4.134203 -1.170150 -3.157301 -9.316301 -3.199790 -1.624383 -0.013623 0.131272
0.531842 48.432167 0.370091 0.001922 -3.251621 -0.003475 4.433458 4.072259 -1.699510 -0.109327 -0.265817 1.370744 2.084759 -0.126786 0.799059 -3.875770 -0.348510 0.885004 2.274573 1.744752 0.346450 8.872777 -0.112947 -0.665594 -3.107254 11.957852 -3.230685 6.104616 24.702235 -63.322798 14.281761 8.928440 1.697820 -18.314099 -32.785931 -34.770151 -2.974209 -11.077846 3.454216 5.294585 1.521195 61.255096 14.243983 -7.673517 -3.007864 -12.418836 31.049868 32.999388 0.740319 3.579490 -0.938578 5.982313 -0.499803 -7.442940 2.308746 3.679951 -0.381210 -5.814918 -4.931920 5.464321 -1.895242 -0.362215 -0.047079 4.440210 0.199593 7.474014 -0.040099 -4.124765 -1.097971 -3.313722 -9.609073 -3.140168 -1.747055 0.018051 0.057425
0.622081 48.418673 0.402684 0.002904 -3.312461 -0.003017 4.385436 4.109002 -1.616109 -0.053076 -0.347791 1.327008 2.073916 -0.228702 0.779450 -3.851970 -0.342327 0.796657 2.244475 1.775650 0.380642 8.860118 -0.166117 -0.526331 -3.167343 11.958284 -3.175918 6.121608 24.649284 -63.330935 14.295521 8.989781 1.753024 -18.522764 -32.793767 -34.929112 -2.962460 -11.118493 3.456803 5.371510 1.522023 61.166694 14.262408 -7.732862 -2.959205 -12.426093 31.043754 33.092838 0.778427 3.614441 -0.911073 6.105148 -0.726029 -7.674772 2.113309 4.044578 -0.425620 -5.845240 -5.009625 5.651306 -1.888946 -0.348672 -0.048428 4.226939 0.250352 7.461246 0.270707 -3.965445 -1.046821 -3.394187 -9.733756 -3.203665 -1.820063 0.000928 0.009503
0.703845 48.402861 0.422464 0.004637 -3.359670 -0.006067 4.303208 4.092183 -1.536560 0.053991 -0.453571 1.290670 2.049890 -0.298552 0.743124 -3.804378 -0.354595 0.696053 2.223181 1.798394 0.412994 8.868233 -0.257221 -0.324487 -3.244849 11.903443 -3.088302 6.102566 24.578332 -63.326741 14.374546 9.024703 1.694772 -18.726065 -32.962742 -34.973868 -2.957220 -11.194731 3.465562 5.396632 1.435320 61.068828 14.353442 -7.820932 -2.869012 -12.417077 31.068617 33.097338 0.809582 3.589559 -0.887990 6.209992 -0.923649 -7.875852 1.948386 4.416415 -0.459240 -5.889504 -5.015149 5.772049 -1.871590 -0.404921 -0.025497 3.891037 0.215877 7.481107 0.678708 -3.681077 -1.007481 -3.403443 -9.791014 -3.307351 -1.847198 -0.005265 -0.025090
